<svg width="70" height="70" viewBox="0 0 70 70" fill="none" xmlns="http://www.w3.org/2000/svg">
  <circle cx="35" cy="35" r="35" fill="#DE596D"/>
  <path d="M18.4324 20.0246C20.3212 20.0246 21.8525 18.4841 21.8525 16.5838C21.8525 14.6835 20.3212 13.143 18.4324 13.143C16.5435 13.143 15.0122 14.6835 15.0122 16.5838C15.0122 18.4841 16.5435 20.0246 18.4324 20.0246Z" fill="#FFFEF6"/>
  <path d="M18.4694 23.6511C17.5097 23.6511 16.1934 23.6016 15.6397 23.6016C15.3568 23.6016 15 23.9481 15 24.3071V56.0169C15 56.6481 15.5167 56.9823 16.3041 56.9823H32.5067C42.4596 56.9823 52.6585 45.9916 52.6585 36.1519C52.6585 26.3121 44.8094 20.8663 37.6123 21.6955C44.5633 25.9161 45.8059 31.362 45.6952 36.1519C45.5724 41.4616 41.6476 50.1626 29.0374 50.1626H22.4554C22.1725 50.1626 21.9141 50.0017 21.9141 49.321V24.9754C21.9141 24.6413 22.0125 24.1338 21.6681 23.7625C21.3236 23.3912 19.429 23.6511 18.4694 23.6511Z" fill="#FFFEFF"/>
  <path d="M26.9213 48.6774C25.9617 48.6774 24.6453 48.7269 24.0916 48.7269C23.8087 48.7269 23.4519 48.3803 23.4519 48.0214V14.1084C23.4519 13.4772 23.9686 13.143 24.756 13.143C25.5434 13.143 29.8862 12.8212 41.3154 13.143C51.2643 13.4231 61.1104 23.7006 61.1104 33.9735C61.1104 43.8132 54.59 56.4749 39.8391 56.8462C55.3897 48.0956 54.1471 36.6346 54.1471 33.9735C54.1471 28.6623 50.7885 19.9627 37.4893 19.9627H30.9073C30.6244 19.9627 30.366 20.1236 30.366 20.8044V47.353C30.366 47.6872 30.4644 48.1947 30.12 48.566C29.7755 48.9373 27.8809 48.6774 26.9213 48.6774Z" fill="#DA9096"/>
</svg>
