<svg width="30" height="30" viewBox="0 0 30 30" fill="none" xmlns="http://www.w3.org/2000/svg">
  <path d="M10 4H4V10H10V4Z" fill="#DE596D"/>
  <path d="M10 12H4V18H10V12Z" fill="#DE596D"/>
  <path d="M18 12H12V18H18V12Z" fill="#DE596D"/>
  <path d="M10 20H4V26H10V20Z" fill="#DE596D"/>
  <path d="M18 4H12V10H18V4Z" fill="#DE596D"/>
  <path d="M26 4H20V10H26V4Z" fill="#DE596D"/>
  <path d="M23 29.5C26.5899 29.5 29.5 26.5899 29.5 23C29.5 19.4101 26.5899 16.5 23 16.5C19.4101 16.5 16.5 19.4101 16.5 23C16.5 26.5899 19.4101 29.5 23 29.5Z" stroke="#DE596D"/>
  <path fill-rule="evenodd" clip-rule="evenodd" d="M26 12H20V16.6736C20.9093 16.2417 21.9264 16 23 16C24.0736 16 25.0907 16.2417 26 16.6736V12Z" fill="#DE596D"/>
  <path fill-rule="evenodd" clip-rule="evenodd" d="M16.6736 20H12V26H16.6736C16.2417 25.0907 16 24.0736 16 23C16 21.9264 16.2417 20.9093 16.6736 20Z" fill="#DE596D"/>
  <path d="M21 25L23 23V19" stroke="#DE596D"/>
</svg>
