<svg width="30" height="30" viewBox="0 0 30 30" fill="none" xmlns="http://www.w3.org/2000/svg">
  <path fill-rule="evenodd" clip-rule="evenodd" d="M14.6579 3.79855C14.4392 3.93197 14.5904 3.5381 13.0249 8.05082C12.354 9.98441 11.7838 11.5949 11.7577 11.6296C11.7254 11.6724 10.4096 11.7171 7.6806 11.7681C4.6407 11.8249 3.60529 11.8622 3.46455 11.9201C3.15851 12.0458 3.01894 12.4205 3.16156 12.7336C3.20164 12.8216 4.54566 13.8758 6.49642 15.3494C9.6807 17.7549 9.76279 17.8219 9.71246 17.9734C9.30611 19.1963 7.4304 25.5399 7.4304 25.6913C7.4304 26.0757 7.76216 26.3566 8.12925 26.2831C8.26578 26.2558 11.0796 24.3407 14.5334 21.9242L14.986 21.6076L15.2659 21.7992C15.4197 21.9046 16.9258 22.949 18.6126 24.12C20.2994 25.2911 21.756 26.2646 21.8495 26.2833C22.2144 26.3563 22.5476 26.0754 22.5476 25.6947C22.5476 25.5836 22.0334 23.798 21.4051 21.7267C20.7767 19.6553 20.2559 17.9269 20.2478 17.8858C20.2398 17.8447 21.6833 16.7158 23.4558 15.3771C25.2283 14.0384 26.7244 12.8707 26.7807 12.7821C26.9074 12.5825 26.9107 12.4042 26.7918 12.1742C26.6213 11.8445 26.6601 11.848 22.3132 11.7693C19.5358 11.7191 18.2798 11.6767 18.2354 11.6316C18.2002 11.5957 17.6228 9.98441 16.9524 8.05082C16.282 6.11722 15.682 4.39474 15.6191 4.22312C15.4382 3.73005 15.0509 3.55896 14.6579 3.79855Z" fill="#DE596D"/>
</svg>
