<svg width="31" height="30" viewBox="0 0 31 30" fill="none" xmlns="http://www.w3.org/2000/svg">
  <path fill-rule="evenodd" clip-rule="evenodd" d="M6.3715 3.63851C6.08344 3.75184 5.90572 4.02579 5.90572 4.35636C5.90572 4.60473 6.02043 4.81423 6.24664 4.97915C6.3675 5.06726 6.45026 5.07605 7.2829 5.08905L8.18783 5.10324L8.18862 7.42347C8.18951 9.93397 8.20357 10.1102 8.44445 10.6273C8.51054 10.7691 8.64695 10.9924 8.74769 11.1235C8.84983 11.2565 9.763 12.0709 10.813 12.9654C12.9073 14.7496 12.9388 14.7843 12.9379 15.3027C12.937 15.8306 12.9243 15.8446 10.8342 17.6245C9.79821 18.5069 8.88276 19.3089 8.79985 19.4068C8.71695 19.5048 8.57653 19.7291 8.48776 19.9053C8.20152 20.4735 8.18955 20.6048 8.18862 23.1868L8.18783 25.507L7.2829 25.5212C6.45026 25.5342 6.3675 25.543 6.24664 25.6311C5.78425 25.9682 5.78435 26.5676 6.24678 26.9043L6.3783 27.0001H15.4999H24.6215L24.753 26.9043C25.2155 26.5676 25.2155 25.9682 24.7532 25.6311C24.6323 25.543 24.5495 25.5342 23.7169 25.5212L22.812 25.507L22.8112 23.3699C22.8103 21.0613 22.7934 20.8602 22.5577 20.3542C22.4929 20.2151 22.3616 19.9965 22.2659 19.8683C22.1658 19.7344 21.2202 18.8863 20.0417 17.8737C18.9141 16.9048 17.9579 16.0695 17.9167 16.0175C17.5766 15.5887 17.583 14.9914 17.9323 14.5699C17.9649 14.5306 18.9146 13.705 20.0427 12.7353C21.2124 11.7299 22.1682 10.8727 22.2669 10.7406C22.3621 10.6131 22.4929 10.3951 22.5577 10.2561C22.7934 9.7501 22.8103 9.54897 22.8112 7.24037L22.812 5.10324L23.7169 5.08905C24.5495 5.07605 24.6323 5.06726 24.7532 4.97915C25.2155 4.64208 25.2155 4.04268 24.753 3.70593L24.6215 3.61018L15.5547 3.60143C9.59398 3.59571 6.44802 3.60844 6.3715 3.63851ZM21.2651 7.28345L21.2518 9.4691L21.1349 9.67508C21.048 9.82805 20.5089 10.3191 19.039 11.5836C17.9507 12.52 16.9515 13.4 16.8187 13.5392C16.4083 13.9695 16.107 14.7171 16.107 15.3051C16.107 15.909 16.4106 16.6471 16.8429 17.0947C16.988 17.2448 17.9759 18.1137 19.0382 19.0256C20.1006 19.9374 21.0173 20.7531 21.0753 20.8382C21.1334 20.9234 21.202 21.0676 21.2277 21.1587C21.2559 21.2584 21.2746 22.1567 21.2748 23.4184L21.275 25.5125H15.4983H9.72155L9.73482 23.1437C9.74782 20.8126 9.74963 20.7721 9.84907 20.5919C9.9825 20.3501 10.1256 20.22 11.9836 18.6498C13.6863 17.2109 13.7906 17.1134 14.0585 16.7114C14.6747 15.7868 14.5916 14.4999 13.8592 13.6259C13.7498 13.4953 12.9267 12.7665 12.0302 12.0063C10.1271 10.3927 9.98334 10.2617 9.84907 10.0184C9.74963 9.83817 9.74782 9.7977 9.73482 7.46654L9.72155 5.09779H15.5H21.2785L21.2651 7.28345ZM15.2198 15.5226C15.2181 16.0358 14.9355 16.7612 14.5636 17.2062C14.4592 17.3313 13.5537 18.1341 12.5515 18.9902C11.5492 19.8464 10.6814 20.6167 10.6229 20.702L10.5165 20.8572V22.694C10.5165 24.2824 10.5263 24.5447 10.589 24.6326L10.6615 24.7343H15.4999H20.3383L20.4108 24.6326C20.4732 24.5451 20.4833 24.2998 20.4833 22.8771C20.4833 21.2347 20.4825 21.2223 20.3777 21.0678C20.3196 20.9823 19.3923 20.1569 18.3168 19.2335C17.2414 18.3102 16.2506 17.4348 16.115 17.2882C15.6953 16.8343 15.3636 16.0375 15.361 15.4768C15.3604 15.3551 15.3399 15.3051 15.2903 15.3051C15.2381 15.3051 15.2203 15.3601 15.2198 15.5226Z" fill="#DE596D"/>
</svg>
